<?xml version="1.0" encoding="iso-8859-1"?>
<!-- Generator: Adobe Illustrator 19.0.0, SVG Export Plug-In . SVG Version: 6.00 Build 0)  -->
<svg version="1.1" id="Layer_1" xmlns="http://www.w3.org/2000/svg" xmlns:xlink="http://www.w3.org/1999/xlink" x="0px" y="0px"
	 viewBox="0 0 512 512" style="enable-background:new 0 0 512 512;" xml:space="preserve">
<polygon style="fill:#00CCB3;" points="478.609,233.739 478.609,200.348 445.217,200.348 445.217,166.957 411.826,166.957 
	411.826,133.565 378.435,133.565 378.435,100.174 345.043,100.174 345.043,66.783 311.652,66.783 311.652,33.391 278.261,33.391 
	278.261,0 233.739,0 233.739,33.391 200.348,33.391 200.348,66.783 166.957,66.783 166.957,100.174 133.565,100.174 
	133.565,133.565 100.174,133.565 100.174,166.957 66.783,166.957 66.783,200.348 33.391,200.348 33.391,233.739 0,233.739 0,512 
	211.478,512 211.478,300.522 300.522,300.522 300.522,512 512,512 512,233.739 "/>
<polygon style="fill:#00AA95;" points="478.609,233.739 478.609,200.348 445.217,200.348 445.217,166.957 411.826,166.957 
	411.826,133.565 378.435,133.565 378.435,100.174 345.043,100.174 345.043,66.783 311.652,66.783 311.652,33.391 278.261,33.391 
	278.261,0 256,0 256,300.522 300.522,300.522 300.522,512 512,512 512,233.739 "/>
<polygon style="fill:#FFFFFF;" points="233.739,0 233.739,33.391 200.348,33.391 200.348,66.783 166.957,66.783 166.957,100.174 
	133.565,100.174 133.565,133.565 100.174,133.565 100.174,166.957 66.783,166.957 66.783,200.348 33.391,200.348 33.391,233.739 
	0,233.739 0,267.13 66.783,267.13 66.783,233.739 100.174,233.739 100.174,200.348 133.565,200.348 133.565,166.957 
	166.957,166.957 166.957,133.565 200.348,133.565 200.348,100.174 233.739,100.174 233.739,66.783 278.261,66.783 278.261,0 "/>
<polygon points="478.609,233.739 478.609,478.609 333.913,478.609 333.913,267.13 178.087,267.13 178.087,478.609 33.391,478.609 
	33.391,233.739 0,233.739 0,512 211.478,512 211.478,300.522 300.522,300.522 300.522,512 512,512 512,233.739 "/>
<rect x="33.391" y="200.348" width="33.391" height="33.391"/>
<rect x="445.217" y="200.348" width="33.391" height="33.391"/>
<rect x="66.783" y="166.957" width="33.391" height="33.391"/>
<rect x="411.826" y="166.957" width="33.391" height="33.391"/>
<rect x="100.174" y="133.565" width="33.391" height="33.391"/>
<rect x="378.435" y="133.565" width="33.391" height="33.391"/>
<rect x="133.565" y="100.174" width="33.391" height="33.391"/>
<rect x="345.043" y="100.174" width="33.391" height="33.391"/>
<rect x="166.957" y="66.783" width="33.391" height="33.391"/>
<rect x="311.652" y="66.783" width="33.391" height="33.391"/>
<rect x="200.348" y="33.391" width="33.391" height="33.391"/>
<rect x="278.261" y="33.391" width="33.391" height="33.391"/>
<rect x="233.739" width="44.522" height="33.391"/>
<g>
</g>
<g>
</g>
<g>
</g>
<g>
</g>
<g>
</g>
<g>
</g>
<g>
</g>
<g>
</g>
<g>
</g>
<g>
</g>
<g>
</g>
<g>
</g>
<g>
</g>
<g>
</g>
<g>
</g>
</svg>
